<svg width="133" height="32" viewBox="0 0 133 32" fill="none" xmlns="http://www.w3.org/2000/svg">
<path d="M48.6852 9.08243L45.4854 24.2272H42.0004L37.2065 15.787L35.4321 24.2272H31.3242L34.524 9.0829H38.0297L42.7817 17.5232L44.5768 9.08526L48.6852 9.08243Z" fill="white"/>
<path d="M62.0957 9.08243L61.3144 12.7678H57.0999L54.6706 24.2258H50.5613L52.9901 12.7678H48.7695L49.5508 9.08243H62.0957Z" fill="white"/>
<path d="M73.2159 10.423C72.7525 9.97998 72.206 9.63321 71.6078 9.40271C71.0096 9.17221 70.3717 9.06256 69.7309 9.08009H62.941L59.7412 24.2244H63.8491L65.6305 15.7865H65.6235L66.2675 12.766H69.0132C69.1996 12.7577 69.3858 12.7868 69.5608 12.8516C69.7358 12.9164 69.8961 13.0155 70.0322 13.1432C70.1564 13.2602 70.2549 13.4019 70.3212 13.5592C70.3876 13.7165 70.4203 13.8859 70.4174 14.0565C70.4249 14.2978 70.3753 14.5374 70.2726 14.7559C70.1699 14.9743 70.0171 15.1654 69.8266 15.3136C69.4389 15.6279 68.9531 15.7961 68.454 15.7889H65.8564L68.6973 24.2268H72.932L70.9677 18.7156L71.3477 18.5765C71.6698 18.4508 71.9734 18.2821 72.2502 18.0748C72.6323 17.8027 72.9908 17.4989 73.322 17.1667C73.7262 16.7405 74.0389 16.2362 74.241 15.6847C74.501 15.0149 74.6301 14.3015 74.621 13.5831C74.6227 12.9873 74.4984 12.3979 74.2564 11.8535C74.0145 11.3091 73.6602 10.8219 73.2168 10.4239" fill="white"/>
<path d="M90.5114 20.1552C89.6621 21.5081 88.4923 22.6306 87.1056 23.4233C85.7423 24.232 84.1866 24.6588 82.6016 24.6592C80.4874 24.7267 78.4303 23.967 76.8674 22.5416C76.1418 21.9091 75.5613 21.1273 75.1658 20.2496C74.7703 19.372 74.5691 18.4193 74.5758 17.4567C74.5788 16.2937 74.8267 15.1444 75.3035 14.0836C75.7802 13.0228 76.475 12.0744 77.3427 11.3C78.184 10.4549 79.1848 9.78535 80.2871 9.33035C81.3893 8.87535 82.571 8.64395 83.7634 8.64961C85.8778 8.58216 87.9351 9.34184 89.4981 10.7672C90.2238 11.3997 90.8043 12.1815 91.1998 13.0591C91.5954 13.9367 91.7966 14.8895 91.7897 15.8521C91.7858 17.3796 91.3419 18.8732 90.5114 20.1552ZM80.294 13.7826C79.8341 14.223 79.469 14.7527 79.2211 15.3393C78.9732 15.9258 78.8478 16.5568 78.8526 17.1936C78.8387 17.6952 78.9278 18.1944 79.1143 18.6603C79.3008 19.1262 79.5808 19.549 79.937 19.9025C80.3007 20.2628 80.7342 20.5449 81.2109 20.7314C81.6876 20.9179 82.1975 21.0049 82.7091 20.987C83.3334 20.9882 83.9516 20.8646 84.5273 20.6234C85.1031 20.3822 85.6247 20.0282 86.0616 19.5823C86.5322 19.1385 86.9045 18.6009 87.1546 18.0043C87.4047 17.4077 87.5269 16.7653 87.5134 16.1185C87.5255 15.6195 87.4355 15.1232 87.2491 14.6602C87.0626 14.1971 86.7835 13.7771 86.429 13.4257C86.0659 13.0643 85.6326 12.7814 85.1557 12.5942C84.6789 12.4071 84.1688 12.3199 83.6569 12.3379C83.0271 12.336 82.4037 12.4634 81.8251 12.7122C81.2466 12.9611 80.7253 13.326 80.2935 13.7845" fill="white"/>
<path d="M97.9905 20.8309C98.1829 20.711 98.3392 20.5411 98.4425 20.3393C98.5458 20.1374 98.5924 19.9113 98.5771 19.6851C98.5552 19.5018 98.4883 19.3267 98.3823 19.1756C98.2764 19.0244 98.1346 18.9019 97.9697 18.8189C97.5055 18.5117 97.0166 18.2436 96.508 18.0173C95.9381 17.7567 95.3698 17.4611 94.803 17.1304C94.2255 16.7899 93.7284 16.3288 93.3455 15.7785C92.9407 15.2084 92.728 14.5242 92.7382 13.825C92.735 13.1261 92.8873 12.4352 93.184 11.8025C93.4808 11.1697 93.9146 10.6109 94.4541 10.1665C95.5964 9.15617 97.1505 8.65102 99.1164 8.65102C99.7744 8.6472 100.43 8.72335 101.07 8.87781C101.592 8.99614 102.098 9.17891 102.575 9.42194C102.93 9.6114 103.273 9.82127 103.604 10.0505C103.837 10.2008 104.045 10.3886 104.217 10.6064L104.417 10.8177L101.65 13.204C101.551 13.0922 101.441 12.9898 101.323 12.898C101.052 12.7082 100.762 12.5473 100.457 12.418C100.045 12.2213 99.5936 12.1186 99.1367 12.1172C98.6833 12.0975 98.2354 12.2233 97.8584 12.476C97.7092 12.5692 97.5856 12.6982 97.4989 12.8513C97.4122 13.0043 97.3651 13.1766 97.3619 13.3525C97.3822 13.5335 97.4474 13.7066 97.5516 13.8559C97.6558 14.0053 97.7956 14.1263 97.9584 14.2079C98.42 14.5094 98.9095 14.7658 99.4201 14.9736C100.009 15.2215 100.582 15.505 101.136 15.8224C101.711 16.1536 102.205 16.608 102.584 17.153C102.984 17.7247 103.193 18.4087 103.18 19.1065C103.202 19.8597 103.057 20.6084 102.757 21.2993C102.456 21.9901 102.006 22.6061 101.44 23.1032C100.277 24.1405 98.6649 24.6592 96.6037 24.6592C95.8753 24.6613 95.1497 24.5706 94.4442 24.3894C93.8425 24.2451 93.2608 24.0274 92.7122 23.7411C92.2908 23.5123 91.8837 23.2584 91.4929 22.9806C91.2136 22.7899 90.9552 22.5704 90.722 22.3256L90.4688 22.0616L93.2564 19.6648C93.2985 19.7073 93.3532 19.7601 93.4205 19.8233C93.4878 19.8864 93.6357 20.01 93.8642 20.1939C94.088 20.3738 94.3265 20.5346 94.5771 20.6748C94.8688 20.8304 95.1771 20.9526 95.4961 21.0393C95.8494 21.143 96.2157 21.1964 96.5839 21.1977C97.0789 21.2122 97.5678 21.0858 97.9938 20.8332" fill="#05AA38"/>
<path d="M20.8203 12.5462H32.4914L33.2326 9.08243H21.5521L20.8203 12.5462Z" fill="white"/>
<path d="M30.2433 24.2263L30.9845 20.7625H23.1889L23.7382 18.1748H29.578L30.2641 14.9213H20.3187L18.3511 24.2263H30.2433Z" fill="white"/>
<path d="M118.08 9.08243H106.4L105.668 12.5462H117.34L118.08 9.08243Z" fill="#05AA38"/>
<path d="M115.093 24.2263L115.834 20.7625H108.039L108.588 18.1748H114.429L115.115 14.9213H105.166L103.201 24.2254L115.093 24.2263Z" fill="#05AA38"/>
<path d="M119.055 22.584C118.389 21.9658 117.858 21.2166 117.495 20.3833C117.133 19.55 116.947 18.6507 116.948 17.742C116.943 16.5288 117.199 15.3287 117.699 14.2235C118.199 13.1182 118.932 12.1338 119.847 11.3373C121.708 9.57367 124.185 8.60887 126.748 8.64962C127.526 8.64538 128.302 8.75207 129.05 8.96648C129.673 9.13339 130.269 9.38957 130.819 9.72705C131.238 9.99736 131.64 10.2937 132.023 10.6144C132.3 10.8347 132.546 11.0904 132.757 11.375L133 11.681L130.076 14.1523C130.048 14.1098 130.002 14.0446 129.937 13.9566C129.803 13.7959 129.654 13.6475 129.494 13.5129C129.263 13.3065 129.015 13.1205 128.753 12.957C128.427 12.7672 128.077 12.6217 127.713 12.5241C127.279 12.3977 126.829 12.3342 126.377 12.3355C125.691 12.3294 125.011 12.4608 124.377 12.722C123.743 12.9832 123.168 13.3688 122.686 13.8562C122.179 14.3338 121.777 14.9122 121.507 15.5542C121.237 16.1962 121.105 16.8877 121.118 17.584C121.105 18.037 121.187 18.4876 121.359 18.9069C121.531 19.3262 121.789 19.7048 122.116 20.0185C122.458 20.3426 122.862 20.595 123.304 20.7609C123.745 20.9268 124.216 21.0029 124.687 20.9846C125.184 20.9889 125.678 20.9092 126.149 20.7489C126.505 20.6416 126.839 20.4717 127.136 20.2472L127.432 20.0157L127.781 18.3898H125.404L125.943 15.7918H132.426L131.201 21.6316C131.13 21.7161 131.024 21.8269 130.883 21.964C130.742 22.101 130.445 22.3439 129.991 22.6925C129.539 23.0404 129.059 23.3502 128.555 23.6185C127.939 23.9288 127.291 24.1711 126.622 24.3414C125.843 24.5562 125.038 24.6653 124.23 24.6658C123.271 24.6879 122.318 24.5155 121.428 24.1589C120.537 23.8023 119.729 23.269 119.05 22.5911" fill="#05AA38"/>
<path d="M6.82539 28.7892L6.56982 29.8964H23.9416L24.0901 28.7892H6.82539Z" fill="#05AA38"/>
<path d="M2.60336 7.47412C2.52927 7.59383 2.46341 7.71845 2.40625 7.8471C2.47038 7.72121 2.53688 7.59813 2.60336 7.47412Z" fill="#0CC66D"/>
<path d="M6.34045 9.33191C6.27451 9.43779 6.2159 9.54807 6.16504 9.66197C6.22162 9.54974 6.28104 9.43989 6.34045 9.33191Z" fill="#0CC66D"/>
<path d="M15.6549 19.9227C15.329 20.1129 14.9924 20.2838 14.6467 20.4348C14.2259 20.6132 13.7847 20.739 13.3331 20.8092C12.8337 20.8946 12.3244 20.9052 11.8219 20.8408C11.3361 20.7977 10.8642 20.6564 10.4346 20.4256C10.0051 20.1948 9.62684 19.8792 9.32281 19.4979C9.03042 19.1262 8.81783 18.6982 8.69832 18.2406C8.57882 17.783 8.55496 17.3057 8.62825 16.8385C8.706 16.1359 8.92931 15.4573 9.28393 14.8458C9.63854 14.2343 10.1167 13.7034 10.6878 13.287C11.2402 12.8536 11.8742 12.5359 12.5521 12.3529C13.2299 12.1699 13.9376 12.1253 14.6331 12.2218C15.1075 12.2805 15.5713 12.4063 16.0104 12.5953C16.2681 12.7053 16.5169 12.8352 16.7545 12.9838L19.4072 10.0604C18.9056 9.68361 18.3588 9.37107 17.7795 9.13007C17.0429 8.81344 16.265 8.60339 15.4691 8.50624C12.866 8.12721 10.2185 8.79133 8.1025 10.3541C7.07151 11.054 6.20221 11.9664 5.55297 13.03C4.90373 14.0936 4.48957 15.2838 4.33833 16.5207C4.21652 17.4436 4.28366 18.3817 4.53567 19.2779C4.78768 20.1741 5.2193 21.0097 5.8043 21.7338C6.39573 22.515 7.14192 23.1659 7.99622 23.6457C8.85052 24.1255 9.79458 24.4239 10.7694 24.5224C11.6018 24.6301 12.4449 24.6255 13.276 24.5088C13.9746 24.424 14.6612 24.2598 15.3225 24.0193C15.8579 23.8097 16.3745 23.5548 16.8667 23.2573C17.1895 23.0721 17.5008 22.8673 17.7989 22.6443L16.1914 19.5733C16.0189 19.6999 15.8396 19.817 15.6544 19.9241" fill="white"/>
<path d="M112.245 28.7892L111.99 29.8964H129.362L129.51 28.7892H112.245Z" fill="#05AA38"/>
<path d="M28.0103 30.1877L27.5718 30.9483H26.8174L28.7681 27.7221H29.5041L30.0888 30.9483H29.3716L29.2566 30.1877H28.0103ZM28.9831 28.5299L28.3644 29.5894H29.1519L28.9831 28.5299Z" fill="#05AA38"/>
<path d="M31.0103 30.9483L31.6921 27.7221H32.3824L31.8298 30.3273H33.3259L33.1977 30.9483H31.0103Z" fill="#05AA38"/>
<path d="M35.0162 30.1877L34.5777 30.9483H33.8232L35.7706 27.7221H36.5062L37.0914 30.9483H36.3742L36.2591 30.1877H35.0162ZM35.9889 28.5299L35.3703 29.5894H36.1577L35.9889 28.5299Z" fill="#05AA38"/>
<path d="M38.6974 27.7217H40.0611C40.1889 27.7188 40.3159 27.7419 40.4345 27.7897C40.5531 27.8374 40.6607 27.9088 40.7509 27.9994C40.8391 28.0821 40.9092 28.1822 40.957 28.2932C41.0048 28.4043 41.0292 28.524 41.0286 28.6449C41.0301 28.7956 41.0018 28.9452 40.9452 29.0849C40.9001 29.2027 40.8316 29.3102 40.7438 29.4008C40.6722 29.4716 40.5947 29.5362 40.5123 29.5941C40.4515 29.6384 40.3849 29.6739 40.3143 29.6997L40.2313 29.7271L40.6655 30.9488H39.9455L39.5631 29.8171H38.9468L38.7059 30.9488H38.0146L38.6974 27.7217ZM40.1591 29.0679C40.2119 29.0275 40.2543 28.975 40.2826 28.9149C40.311 28.8547 40.3246 28.7887 40.3223 28.7222C40.3248 28.6244 40.2912 28.5291 40.228 28.4544C40.1974 28.4184 40.1589 28.3897 40.1157 28.3706C40.0724 28.3515 40.0253 28.3424 39.9781 28.3441H39.2595L39.0742 29.1966H39.7852C39.9209 29.198 40.0528 29.1523 40.1587 29.0674L40.1591 29.0679Z" fill="#05AA38"/>
<path d="M45.2256 27.7221H45.8857L45.2039 30.9483H44.5145L44.9714 28.8024L43.6512 30.1184L42.8906 28.8114L42.4384 30.9488H41.7505L42.4323 27.7226H43.0094L43.8172 29.1287L45.2256 27.7221Z" fill="#05AA38"/>
<path d="M49.0447 30.3273L48.914 30.9483H46.4956L47.1774 27.7221H49.5511L49.4228 28.3455H47.7414L47.6023 28.991H48.914L48.7815 29.6115H47.4674L47.317 30.3273H49.0447Z" fill="#05AA38"/>
<path d="M51.4544 30.3136C51.5105 30.2809 51.5563 30.2332 51.5869 30.1759C51.6174 30.1187 51.6315 30.054 51.6275 29.9892C51.6255 29.9424 51.612 29.8969 51.5882 29.8565C51.5645 29.8161 51.5311 29.7822 51.4912 29.7577C51.3891 29.6836 51.2782 29.6224 51.1612 29.5752C51.032 29.5212 50.9031 29.4613 50.7745 29.3956C50.6454 29.3299 50.5326 29.2361 50.4444 29.1212C50.3532 29.0029 50.3051 28.857 50.3082 28.7076C50.3052 28.5647 50.3341 28.4228 50.3926 28.2923C50.4511 28.1619 50.538 28.046 50.6467 27.9532C50.9051 27.7424 51.2328 27.6356 51.5657 27.6538C51.6947 27.6537 51.8231 27.6695 51.9481 27.7009C52.0527 27.725 52.1542 27.7612 52.2504 27.8089C52.3224 27.846 52.3919 27.8879 52.4583 27.9344C52.5052 27.9656 52.5476 28.0032 52.5842 28.0461L52.6248 28.0932L52.1452 28.5101C52.1273 28.4921 52.1023 28.4691 52.0698 28.4403C52.0072 28.3943 51.9393 28.3561 51.8675 28.3266C51.767 28.28 51.6576 28.2559 51.5469 28.2559C51.4202 28.2478 51.2943 28.2809 51.188 28.3502C51.1469 28.3794 51.1136 28.4183 51.091 28.4635C51.0685 28.5086 51.0574 28.5586 51.0588 28.6091C51.0599 28.6476 51.0694 28.6854 51.0864 28.7199C51.1035 28.7544 51.1279 28.7848 51.1578 28.809C51.2303 28.8728 51.3128 28.9241 51.4021 28.9608C51.4989 29.002 51.6052 29.0503 51.7209 29.1056C51.8303 29.1578 51.9366 29.2164 52.0391 29.281C52.1381 29.3447 52.2216 29.4298 52.2834 29.53C52.3502 29.6374 52.3846 29.7618 52.3824 29.8883C52.3887 30.0433 52.36 30.1977 52.2985 30.3401C52.2369 30.4824 52.1441 30.6091 52.0269 30.7107C51.7437 30.9305 51.3902 31.0396 51.0324 31.0176C50.8864 31.0181 50.7409 30.9996 50.5996 30.9625C50.4792 30.9328 50.3628 30.8886 50.253 30.8309C50.1688 30.785 50.088 30.7331 50.0111 30.6758C49.957 30.637 49.9073 30.5926 49.8626 30.5433L49.8154 30.4871L50.2903 30.0864C50.32 30.1194 50.3515 30.1509 50.3846 30.1807C50.4637 30.2411 50.5506 30.2906 50.643 30.3278C50.7724 30.3892 50.9137 30.4214 51.0569 30.4221C51.1969 30.4231 51.3344 30.3856 51.4544 30.3136Z" fill="#05AA38"/>
<path d="M57.1975 30.3273L57.0669 30.9483H54.6484L55.3303 27.7221H57.7039L57.5756 28.3455H55.8951L55.756 28.991H57.0678L56.9348 29.6115H55.6207L55.4703 30.3273H57.1975Z" fill="#05AA38"/>
<path d="M63.0512 27.7221H63.7113L63.0295 30.9483H62.3392L62.7956 28.8024L61.4754 30.1184L60.7148 28.8114L60.2626 30.9488H59.5728L60.2546 27.7226H60.8279L61.6357 29.1287L63.0512 27.7221Z" fill="#05AA38"/>
<path d="M65.0285 28.2159C65.2077 28.0371 65.4205 27.8955 65.6546 27.7992C65.8887 27.7029 66.1395 27.6538 66.3926 27.6548C66.6067 27.6467 66.8203 27.6815 67.0207 27.757C67.2212 27.8326 67.4046 27.9474 67.5601 28.0947C67.706 28.2307 67.8218 28.3957 67.9 28.5792C67.9782 28.7626 68.0171 28.9605 68.0142 29.1599C68.0141 29.486 67.9196 29.8052 67.7421 30.0789C67.5631 30.364 67.3154 30.5996 67.0216 30.764C66.732 30.9309 66.4035 31.0185 66.0692 31.0181C65.8544 31.026 65.6403 30.9913 65.439 30.9158C65.2378 30.8404 65.0536 30.7258 64.8969 30.5787C64.7493 30.4423 64.6322 30.2763 64.5531 30.0915C64.4741 29.9067 64.4349 29.7074 64.4382 29.5064C64.44 29.2618 64.4935 29.0204 64.5953 28.798C64.697 28.5755 64.8447 28.3772 65.0285 28.2159ZM65.5236 28.6327C65.4097 28.7396 65.3189 28.8688 65.2568 29.0121C65.1947 29.1555 65.1626 29.3101 65.1624 29.4663C65.1595 29.5886 65.1815 29.7101 65.2269 29.8235C65.2724 29.937 65.3404 30.0401 65.427 30.1265C65.5159 30.2153 65.6223 30.2849 65.7394 30.3308C65.8564 30.3767 65.9817 30.398 66.1074 30.3934C66.4201 30.3826 66.7169 30.2527 66.9369 30.0302C67.157 29.8077 67.2836 29.5095 67.2909 29.1966C67.2938 29.0741 67.2715 28.9523 67.2254 28.8388C67.1793 28.7253 67.1105 28.6224 67.0231 28.5365C66.9341 28.4487 66.8281 28.3799 66.7118 28.3342C66.5954 28.2886 66.4709 28.2671 66.3459 28.271C66.1916 28.272 66.039 28.3045 65.8977 28.3666C65.7563 28.4288 65.6292 28.5191 65.5241 28.6322L65.5236 28.6327Z" fill="#05AA38"/>
<path d="M72.3036 27.7221L71.6217 30.9483H71.0446L69.8658 28.8944L69.432 30.9483H68.7417L69.4235 27.7221H69.9997L71.1785 29.7785L71.6109 27.7221H72.3036Z" fill="#05AA38"/>
<path d="M73.5949 27.7221H74.2852L73.6034 30.9483H72.9126L73.5949 27.7221Z" fill="#05AA38"/>
<path d="M77.7887 27.7221L77.6605 28.3455H76.7382L76.187 30.9483H75.4924L76.0483 28.3455H75.1279L75.2562 27.7221H77.7887Z" fill="#05AA38"/>
<path d="M78.5949 28.2159C78.7742 28.0371 78.9871 27.8955 79.2212 27.7992C79.4554 27.7029 79.7063 27.6538 79.9595 27.6547C80.1736 27.6466 80.3872 27.6814 80.5876 27.7569C80.7881 27.8325 80.9715 27.9473 81.127 28.0947C81.273 28.2306 81.389 28.3956 81.4673 28.5791C81.5456 28.7625 81.5845 28.9604 81.5816 29.1599C81.5813 29.4861 81.4866 29.8052 81.309 30.0788C81.1298 30.3639 80.8819 30.5995 80.5881 30.764C80.2984 30.9309 79.9699 31.0185 79.6356 31.0181C79.4208 31.026 79.2067 30.9912 79.0054 30.9158C78.8042 30.8404 78.62 30.7258 78.4634 30.5786C78.3158 30.4423 78.1986 30.2763 78.1196 30.0915C78.0405 29.9067 78.0013 29.7074 78.0046 29.5064C78.0064 29.2618 78.0601 29.0203 78.1619 28.7979C78.2637 28.5755 78.411 28.3771 78.5949 28.2159ZM79.0896 28.6327C78.9758 28.7397 78.8852 28.8689 78.8231 29.0123C78.7611 29.1556 78.729 29.3101 78.7288 29.4663C78.7259 29.5885 78.7479 29.7101 78.7933 29.8235C78.8388 29.937 78.9069 30.0401 78.9934 30.1265C79.0824 30.2153 79.1888 30.2848 79.3058 30.3307C79.4229 30.3766 79.5481 30.3979 79.6738 30.3933C79.9864 30.3825 80.2831 30.2525 80.503 30.03C80.723 29.8075 80.8495 29.5094 80.8568 29.1966C80.8597 29.0741 80.8374 28.9523 80.7914 28.8388C80.7453 28.7252 80.6764 28.6224 80.589 28.5365C80.5 28.4487 80.3941 28.3799 80.2777 28.3343C80.1613 28.2887 80.0368 28.2672 79.9119 28.271C79.7576 28.2721 79.6051 28.3046 79.4639 28.3667C79.3226 28.4288 79.1955 28.5192 79.0905 28.6322L79.0896 28.6327Z" fill="#05AA38"/>
<path d="M82.9904 27.7221H84.3536C84.4814 27.7193 84.6084 27.7424 84.727 27.7901C84.8456 27.8379 84.9533 27.9093 85.0434 27.9999C85.1316 28.0826 85.2017 28.1826 85.2495 28.2937C85.2973 28.4048 85.3217 28.5245 85.3211 28.6454C85.3228 28.7961 85.2944 28.9457 85.2377 29.0853C85.1927 29.2032 85.1242 29.3107 85.0363 29.4012C84.9647 29.4721 84.8873 29.5367 84.8048 29.5945C84.7442 29.6388 84.6777 29.6743 84.6073 29.7002L84.5238 29.7275L84.9581 30.9492H84.2381L83.8557 29.8176H83.2394L82.9984 30.9492H82.3081L82.9904 27.7221ZM84.4521 29.0683C84.5049 29.028 84.5473 28.9755 84.5757 28.9154C84.6041 28.8552 84.6177 28.7892 84.6153 28.7227C84.618 28.6249 84.5844 28.5295 84.521 28.4549C84.4904 28.4188 84.4521 28.3902 84.4089 28.3711C84.3657 28.352 84.3188 28.3429 84.2716 28.3445H83.552L83.3667 29.1971H84.0778C84.2143 29.1993 84.3474 29.1538 84.454 29.0683H84.4521Z" fill="#05AA38"/>
<path d="M86.8682 30.1877L86.4297 30.9483H85.6753L87.6255 27.7221H88.3616L88.9462 30.9483H88.2291L88.114 30.1877H86.8682ZM87.841 28.5299L87.2224 29.5894H88.0098L87.841 28.5299Z" fill="#05AA38"/>
<path d="M93.3437 27.7221H94.0038L93.322 30.9483H92.6312L93.0881 28.8024L91.7678 30.1184L91.0072 28.8114L90.555 30.9488H89.8647L90.5466 27.7226H91.1228L91.9305 29.1287L93.3437 27.7221Z" fill="#05AA38"/>
<path d="M97.1619 30.3273L97.0317 30.9483H94.6133L95.2951 27.7221H97.6687L97.5405 28.3455H95.8595L95.7204 28.991H97.0322L96.8992 29.6115H95.5851L95.4342 30.3273H97.1619Z" fill="#05AA38"/>
<path d="M101.693 27.7221L101.011 30.9483H100.435L99.256 28.8944L98.8222 30.9483H98.1318L98.8137 27.7221H99.3899L100.569 29.7785L101.001 27.7221H101.693Z" fill="#05AA38"/>
<path d="M105.195 27.7221L105.067 28.3455H104.145L103.594 30.9483H102.899L103.453 28.3455H102.533L102.66 27.7221H105.195Z" fill="#05AA38"/>
<path d="M106.006 28.2159C106.185 28.0371 106.398 27.8955 106.632 27.7992C106.867 27.7029 107.117 27.6538 107.371 27.6547C107.585 27.6466 107.798 27.6814 107.999 27.7569C108.199 27.8325 108.383 27.9473 108.538 28.0947C108.684 28.2306 108.8 28.3956 108.878 28.5791C108.957 28.7625 108.996 28.9604 108.993 29.1599C108.993 29.486 108.898 29.8052 108.721 30.0788C108.541 30.3639 108.294 30.5995 108 30.764C107.71 30.9309 107.381 31.0186 107.047 31.0181C106.832 31.0259 106.618 30.9911 106.417 30.9157C106.216 30.8403 106.032 30.7257 105.875 30.5786C105.727 30.4423 105.61 30.2763 105.531 30.0915C105.452 29.9067 105.413 29.7074 105.416 29.5064C105.418 29.2619 105.471 29.0204 105.573 28.798C105.675 28.5756 105.822 28.3772 106.006 28.2159ZM106.501 28.6327C106.387 28.7396 106.296 28.8688 106.234 29.0121C106.172 29.1555 106.14 29.3101 106.14 29.4663C106.137 29.5885 106.159 29.7101 106.204 29.8235C106.25 29.937 106.318 30.0401 106.405 30.1265C106.494 30.2152 106.6 30.2847 106.717 30.3307C106.834 30.3766 106.959 30.3979 107.085 30.3933C107.398 30.3825 107.694 30.2525 107.914 30.03C108.134 29.8075 108.261 29.5094 108.268 29.1966C108.271 29.0741 108.249 28.9524 108.203 28.8388C108.157 28.7253 108.088 28.6224 108.001 28.5365C107.912 28.4487 107.806 28.3799 107.689 28.3343C107.573 28.2886 107.448 28.2671 107.324 28.271C107.169 28.2721 107.017 28.3046 106.875 28.3667C106.734 28.4288 106.607 28.5192 106.502 28.6322L106.501 28.6327Z" fill="#05AA38"/>
<mask id="mask0_68_637" style="mask-type:luminance" maskUnits="userSpaceOnUse" x="0" y="0" width="24" height="26">
<path d="M7.90721 7.15817C7.9421 7.14355 7.97651 7.12941 8.01188 7.11574C7.97132 7.13224 7.9303 7.14874 7.89023 7.16619L7.90769 7.15817M14.268 0C13.5082 0.00498198 12.7498 0.0647045 11.9986 0.178706L11.9515 4.18051L10.9787 0.367786C10.5745 0.457061 10.1774 0.561746 9.78765 0.681827C9.30576 0.833972 8.83313 1.00685 8.36978 1.20049L8.75217 2.64477L8.0416 1.34525C7.69299 1.49959 7.35112 1.66652 7.01602 1.84601C6.6146 2.06606 6.22607 2.30182 5.85043 2.55329L7.0764 5.71673L5.01113 3.1625C4.18793 3.80604 3.44076 4.54133 2.78413 5.35413L4.00915 6.56075L2.55168 5.65685C1.92787 6.47526 1.4054 7.36615 0.99566 8.31009L3.22782 9.69071L0.654739 9.19138C0.212507 10.4768 -0.0087811 11.8278 0.000266621 13.1871V13.1899L2.1306 13.1866L0.00875654 13.5237C0.0462026 14.6191 0.23325 15.7042 0.564688 16.7489C1.89627 20.954 5.47746 24.2806 10.0361 25.5857C8.14545 24.979 6.47025 23.8391 5.21199 22.303C4.56541 21.5031 4.08828 20.58 3.80959 19.59C3.53091 18.5999 3.45651 17.5635 3.5909 16.5438C3.75799 15.1774 4.21551 13.8626 4.93274 12.6877C5.64997 11.5127 6.61032 10.5049 7.74926 9.73174C10.0865 8.00538 13.0109 7.27178 15.8863 7.69052C17.4852 7.89469 18.4386 8.41053 19.8046 9.04614L19.5095 7.43355C19.3034 7.3284 19.0889 7.22466 18.8583 7.12423C17.9753 6.74462 17.0427 6.49281 16.0886 6.37639C13.9785 6.09408 11.8312 6.36342 9.85615 7.15814C7.88111 7.95287 6.14571 9.24586 4.8192 10.911C5.5756 9.78358 6.53151 8.80371 7.63987 8.01964C10.105 6.19924 13.1891 5.42582 16.2215 5.86762C17.1483 5.98111 18.0542 6.22592 18.912 6.5947C19.2638 6.74794 19.5854 6.90685 19.8801 7.07142L23.797 3.2304C23.1979 2.75345 22.5617 2.32505 21.8944 1.94927L20.9844 2.88147L21.6327 1.80499C20.9147 1.41934 20.1662 1.09321 19.3949 0.829883L17.0014 4.37479L18.2123 0.478127C17.2441 0.233384 16.2545 0.0824326 15.2573 0.0273548L14.7858 1.57536L14.8645 0.0108498C14.6948 0.0056631 14.5231 0.00235991 14.352 0.00235991H14.2652" fill="white"/>
</mask>
<g mask="url(#mask0_68_637)">
<path d="M14.1431 -11.6889L-12.5698 10.3753L9.6464 37.2722L36.3593 15.2079L14.1431 -11.6889Z" fill="#18AA38"/>
</g>
</svg>
